<?xml version="1.0" encoding="UTF-8"?>
<svg version="1.1" xmlns="http://www.w3.org/2000/svg" width="1024" height="1024">
<path d="M0 0 C337.92 0 675.84 0 1024 0 C1024 337.92 1024 675.84 1024 1024 C686.08 1024 348.16 1024 0 1024 C0 686.08 0 348.16 0 0 Z " fill="#FAF7F5" transform="translate(0,0)"/>
<path d="M0 0 C13.196053 10.28382061 23.19318607 25.42965455 26.44140625 42.00390625 C27.61588331 53.51378139 27.51221931 65.3823626 25.83203125 76.83203125 C26.47527344 76.785625 27.11851562 76.73921875 27.78125 76.69140625 C39.45455668 76.22514008 49.72065626 79.31688797 58.39453125 87.14453125 C68.43743209 98.2174732 70.47179257 110.40363091 70.22265625 125.10546875 C70.21699646 126.39522614 70.21133667 127.68498352 70.20550537 129.01382446 C70.19046165 132.39071511 70.15137412 135.76688262 70.10668945 139.14349365 C70.06526786 142.60988592 70.0473959 146.07639868 70.02734375 149.54296875 C69.98485051 156.30628075 69.91686942 163.069121 69.83203125 169.83203125 C70.5075 169.785625 71.18296875 169.73921875 71.87890625 169.69140625 C72.7709375 169.6553125 73.66296875 169.61921875 74.58203125 169.58203125 C75.46375 169.535625 76.34546875 169.48921875 77.25390625 169.44140625 C80.68525363 169.96130737 81.72478845 171.12073265 83.83203125 173.83203125 C87.33256101 181.64249266 87.20876907 189.95736014 87.01171875 198.34765625 C86.99239288 199.60286072 86.97306702 200.85806519 86.95315552 202.15130615 C86.89717894 205.45657272 86.82596335 208.76108269 86.74932861 212.06591797 C86.69286617 214.75721276 86.65895751 217.44860448 86.62501335 220.1402626 C86.58066995 223.37633872 86.51403317 226.61193522 86.44921875 229.84765625 C86.43341766 231.04569885 86.41761658 232.24374146 86.40133667 233.47808838 C86.2172041 240.50658029 85.8849443 246.19201954 81.20703125 251.76953125 C78.58539686 252.94236769 77.02763644 252.94183851 74.18359375 252.8984375 C72.962771 252.8840564 72.962771 252.8840564 71.71728516 252.86938477 C71.09515137 252.85705811 70.47301758 252.84473145 69.83203125 252.83203125 C69.8477417 253.4962207 69.86345215 254.16041016 69.87963867 254.84472656 C70.38949568 279.65346502 70.38949568 279.65346502 66.83203125 288.83203125 C66.43177734 289.92257812 66.43177734 289.92257812 66.0234375 291.03515625 C62.67285305 298.83829515 55.71379661 305.67011303 47.83203125 308.83203125 C37.73098873 312.31555543 27.87507453 312.25958655 17.34228516 312.22021484 C15.50118195 312.2242874 13.66008118 312.2296331 11.81898499 312.23614502 C6.84984406 312.24974502 1.88089139 312.24454984 -3.08825254 312.23500776 C-8.30937904 312.22737077 -13.53049025 312.23446815 -18.75161743 312.23916626 C-27.51901112 312.24461306 -36.28632881 312.23746148 -45.05371094 312.22314453 C-55.16026324 312.20683032 -65.26663382 312.21210198 -75.3731817 312.22862375 C-84.07931862 312.24228151 -92.78540114 312.24413707 -101.49154532 312.23630774 C-106.67856102 312.23165343 -111.8654916 312.230944 -117.05250168 312.24091721 C-121.93312299 312.24964691 -126.81351243 312.24345641 -131.69410896 312.22623444 C-133.47494817 312.22230099 -135.25580722 312.22334903 -137.03663826 312.23002243 C-155.86561742 312.2940216 -172.76980096 309.88276053 -186.9765625 296.24609375 C-197.51848949 284.63306187 -198.61971366 271.45878064 -198.55615234 256.39599609 C-198.56022518 254.76367341 -198.56557103 253.13135348 -198.57208252 251.4990387 C-198.58567518 247.09626392 -198.58049158 242.69370174 -198.57094526 238.2909236 C-198.56330927 233.66803414 -198.57040492 229.04516196 -198.57510376 224.42227173 C-198.5805488 216.66364295 -198.57340151 208.90510009 -198.55908203 201.14648438 C-198.54274641 192.19239311 -198.54805569 183.23850671 -198.56456125 174.28442037 C-198.57819812 166.57624832 -198.58008537 158.86813775 -198.57224524 151.15995753 C-198.56758229 146.56497187 -198.56690603 141.97008237 -198.57685471 137.375103 C-198.58555463 133.05590968 -198.57944752 128.73697933 -198.56217194 124.41781425 C-198.55822369 122.83805845 -198.55931248 121.25828031 -198.56595993 119.67853355 C-198.59664469 111.64229273 -198.54510373 104.27112395 -195.16796875 96.83203125 C-194.71421875 95.78015625 -194.26046875 94.72828125 -193.79296875 93.64453125 C-188.91109296 85.19513084 -181.74401606 80.22448376 -172.32647705 77.25050354 C-169.70150006 76.74159647 -167.2480133 76.7124816 -164.57324219 76.71850586 C-163.4523822 76.71858139 -162.33152222 76.71865692 -161.17669678 76.71873474 C-159.97241028 76.72389603 -158.76812378 76.72905731 -157.52734375 76.734375 C-156.29002502 76.73578995 -155.0527063 76.7372049 -153.77789307 76.73866272 C-150.49651934 76.74331015 -147.21519502 76.75228778 -143.93383789 76.7633667 C-140.58219864 76.77361605 -137.23055727 76.77808266 -133.87890625 76.78320312 C-127.30857444 76.794231 -120.73827564 76.81096829 -114.16796875 76.83203125 C-114.37950089 76.02188568 -114.59103302 75.21174011 -114.80897522 74.37704468 C-115.08350021 73.30693146 -115.35802521 72.23681824 -115.64086914 71.13427734 C-115.91427628 70.07663177 -116.18768341 69.01898621 -116.46937561 67.92929077 C-117.41624501 63.73128179 -117.66254712 59.74619441 -117.60546875 55.45703125 C-117.5993457 54.64830566 -117.59322266 53.83958008 -117.58691406 53.00634766 C-117.13378616 35.3657297 -108.73465748 18.04497426 -96.77734375 5.28515625 C-69.86851393 -20.0123664 -29.64815927 -20.28943082 0 0 Z " fill="#0B3847" transform="translate(329.16796875,308.16796875)"/>
<path d="M0 0 C0.91455816 0.31790496 0.91455816 0.31790496 1.84759223 0.64223224 C7.93559261 2.63207579 13.28644755 3.43562124 19.66848755 3.39872742 C20.58766397 3.40537424 21.5068404 3.41202107 22.45387065 3.41886932 C25.50468174 3.43738081 28.55509654 3.43490204 31.60595703 3.43237305 C33.80445403 3.44139744 36.00294599 3.45172631 38.20143127 3.46325684 C44.14900992 3.49077327 50.09649295 3.50010412 56.04412699 3.50611091 C62.26748327 3.51550847 68.49076853 3.54171302 74.71408081 3.56611633 C85.82073057 3.60726881 96.92736409 3.63574951 108.03406762 3.657486 C118.11388417 3.6773484 128.19365678 3.70411035 138.2734375 3.73754883 C138.93691028 3.73974765 139.60038306 3.74194648 140.28396107 3.74421193 C143.61270297 3.75528219 146.9414444 3.76648156 150.27018571 3.77772844 C177.84675317 3.87052546 205.42334003 3.94163156 233 4 C233 15.22 233 26.44 233 38 C228.53339844 38.02578125 224.06679688 38.0515625 219.46484375 38.078125 C215.89061157 38.10982764 212.31646703 38.14547925 208.74230194 38.18379211 C204.97637631 38.2230817 201.21068519 38.25550405 197.44458008 38.27099609 C193.81328125 38.28620357 190.18262084 38.32071984 186.55160713 38.36830902 C185.17027923 38.38308103 183.78886016 38.39103861 182.40745354 38.39188385 C173.63078677 38.40264938 167.54917518 38.5246451 161.07421875 44.89453125 C160.38779297 45.84392578 160.38779297 45.84392578 159.6875 46.8125 C159.21699219 47.43769531 158.74648438 48.06289063 158.26171875 48.70703125 C153.85794001 56.71018333 154.27673658 66.11197284 154 75 C153.97131836 75.89895996 153.94263672 76.79791992 153.91308594 77.72412109 C152.80110487 97.33207232 152.80110487 97.33207232 160.4375 114.6875 C163.63069753 118.02356991 166.27936227 119.83750265 170.94866943 120.2784729 C172.094505 120.29179657 173.24034058 120.30512024 174.42089844 120.31884766 C176.37246857 120.34865219 176.37246857 120.34865219 178.36346436 120.37905884 C179.77876618 120.39093441 181.1940698 120.40259732 182.609375 120.4140625 C184.06098528 120.43277797 185.51258473 120.45235167 186.96417236 120.4727478 C190.77811287 120.52403522 194.59208862 120.56367892 198.40618896 120.60089111 C202.30082904 120.64095212 206.19532287 120.69203487 210.08984375 120.7421875 C217.7264621 120.83890659 225.36315131 120.92332405 233 121 C233.17600241 125.45782504 233.28142818 129.91474337 233.375 134.375 C233.42527344 135.62667969 233.47554687 136.87835937 233.52734375 138.16796875 C233.65536902 146.31891073 232.83931164 152.89591761 227 159 C222.69018972 161.25782756 218.55325762 161.28917716 213.7973175 161.27415466 C212.56417644 161.28200968 212.56417644 161.28200968 211.30612344 161.29002339 C208.5533982 161.30501631 205.80085896 161.30572839 203.0480957 161.30639648 C201.07345771 161.31401855 199.09882268 161.32244613 197.12419128 161.33161926 C191.7603449 161.35356905 186.39655553 161.36236406 181.03266931 161.36744571 C177.67985054 161.37108933 174.3270467 161.37732949 170.97423363 161.3844471 C159.27228515 161.40894524 147.57038101 161.42199386 135.8684082 161.42553711 C124.9694498 161.42917054 114.07077332 161.45905137 103.17190105 161.50094169 C93.80865431 161.53566499 84.44550089 161.55108592 75.08219022 161.55178314 C69.49269247 161.55257539 63.90348177 161.56128991 58.31405067 161.58978081 C53.05343805 161.61599548 47.79334973 161.61814743 42.53270149 161.60212517 C40.60665492 161.60031328 38.68057796 161.60697779 36.75459671 161.62294388 C16.25483384 161.78246192 16.25483384 161.78246192 7.87929249 154.03945065 C-0.15329727 145.85141603 -0.43271792 137.17800176 -0.34057617 126.24023438 C-0.33972872 124.85976175 -0.34020735 123.47928777 -0.34190369 122.09881592 C-0.34276045 118.37201564 -0.32518685 114.64550812 -0.30418181 110.91877556 C-0.28536146 107.01638163 -0.28366037 103.11398016 -0.28010559 99.21154785 C-0.2708008 91.83106233 -0.24620837 84.45071096 -0.21605712 77.07028437 C-0.18246419 68.66398996 -0.16601483 60.25768898 -0.15097082 51.85134411 C-0.11965731 34.56748529 -0.06692748 17.28375686 0 0 Z " fill="#83BDBD" transform="translate(148,440)"/>
<path d="M0 0 C9.43098899 8.95271379 16.93525566 20.86389181 17.92700195 34.11499023 C18.45947482 55.34814134 15.17047857 70.47195942 0.19140625 86.46484375 C-10.50044391 96.4724155 -24.43945234 102.16663806 -39.01171875 101.953125 C-54.86571023 100.95866474 -68.72043466 92.30684 -79.25 80.75 C-81.90108476 77.23366557 -84.13766108 73.61067165 -86.25 69.75 C-86.73339844 68.86828125 -87.21679688 67.9865625 -87.71484375 67.078125 C-94.20979015 54.65301014 -96.61083469 38.93241456 -93.05078125 25.15234375 C-88.21615042 10.64845127 -77.61673689 -1.77399486 -64.25 -9.25 C-42.11557347 -18.14005656 -18.35880283 -15.67686929 0 0 Z " fill="#84BEBE" transform="translate(322.25,324.25)"/>
<path d="M0 0 C9.57 0 19.14 0 29 0 C30.95402714 5.21073905 32.7662384 10.29723383 34.3046875 15.62109375 C34.61347336 16.67563499 34.61347336 16.67563499 34.92849731 17.7514801 C35.58017176 19.97933572 36.22770006 22.20836994 36.875 24.4375 C37.30049916 25.89526466 37.72627875 27.3529475 38.15234375 28.81054688 C39.00484256 31.72799764 39.85560272 34.64594764 40.70532227 37.56420898 C42.2324055 42.80375313 43.77562421 48.03854387 45.32357788 53.2719574 C46.96232849 58.82686697 48.51302702 64.40269521 50 70 C52.30083603 63.35656728 54.26266674 56.65290567 56.125 49.875 C58.77089473 40.34309705 61.46392418 30.82587664 64.21307373 21.32330322 C64.61039918 19.94902891 65.00677285 18.57447904 65.40216064 17.199646 C65.95951581 15.26255519 66.5207045 13.32656866 67.08203125 11.390625 C67.56506714 9.7204834 67.56506714 9.7204834 68.05786133 8.01660156 C68.90644463 5.29955173 69.94284354 2.64289115 71 0 C80.24 0 89.48 0 99 0 C99.34229464 12.79144162 99.67612669 25.58307819 100 38.375 C100.0237545 39.3129818 100.047509 40.25096359 100.07198334 41.21736908 C100.76796187 68.81689427 101.30791562 96.39023263 101 124 C93.41 124 85.82 124 78 124 C77.97494385 122.33727051 77.9498877 120.67454102 77.92407227 118.96142578 C77.83924857 113.38951348 77.75103856 107.81766121 77.66066074 102.24583626 C77.60612893 98.87664194 77.55323473 95.50744136 77.50268555 92.13818359 C77.280779 77.40468488 77.01635848 62.70290361 76 48 C75.50185791 49.78277344 75.50185791 49.78277344 74.99365234 51.6015625 C73.73703944 56.09152009 72.47111644 60.57881165 71.20263672 65.06542969 C70.65915367 66.99246988 70.11806082 68.9201861 69.57958984 70.84863281 C66.23619417 82.81512533 62.54292105 94.43124008 58 106 C52.39 106 46.78 106 41 106 C39.36074861 101.27297633 37.72393705 96.54523317 36.09277344 91.81542969 C35.53942098 90.21308 34.98477472 88.61117642 34.42871094 87.00976562 C31.36865454 78.19415189 28.42518256 69.39299647 25.94824219 60.39306641 C24.6955281 55.91051739 23.33740418 51.45801394 22 47 C21.67 72.41 21.34 97.82 21 124 C13.74 124 6.48 124 -1 124 C-0.67 83.08 -0.34 42.16 0 0 Z " fill="#0A3948" transform="translate(457,449)"/>
<path d="M0 0 C1.39296547 -0.01441132 1.39296547 -0.01441132 2.81407166 -0.02911377 C4.33418602 -0.03548859 4.33418602 -0.03548859 5.88500977 -0.04199219 C6.92528824 -0.04769226 7.96556671 -0.05339233 9.03736877 -0.05926514 C11.24918597 -0.06873754 13.46101742 -0.07525796 15.67285156 -0.07910156 C19.03093905 -0.0887367 22.38839609 -0.11970949 25.74633789 -0.15136719 C27.89672489 -0.15790414 30.04711626 -0.16315189 32.19750977 -0.16699219 C33.19270126 -0.17933899 34.18789276 -0.19168579 35.21324158 -0.20440674 C45.68455802 -0.17156972 53.70115445 2.24127323 61.82641602 8.97363281 C68.90849669 17.52097155 68.36664293 29.43676749 67.86987305 39.92089844 C67.22928663 46.1344513 64.42249287 50.50199155 59.95141602 54.66113281 C59.18829102 55.15613281 58.42516602 55.65113281 57.63891602 56.16113281 C56.97891602 56.82113281 56.31891602 57.48113281 55.63891602 58.16113281 C56.17000977 58.38027344 56.70110352 58.59941406 57.24829102 58.82519531 C63.23099625 61.51086226 66.02617547 64.16768003 68.54125977 70.39550781 C71.77344911 80.22612978 72.70220374 93.54208379 68.67407227 103.24707031 C62.72443118 114.24829345 54.43259281 119.59006608 42.63891602 123.16113281 C39.76165467 123.98742289 37.22932376 124.28345754 34.23754883 124.2746582 C32.94666351 124.27454491 32.94666351 124.27454491 31.62969971 124.27442932 C30.70977234 124.26926804 29.78984497 124.26410675 28.84204102 124.25878906 C27.4188858 124.25666664 27.4188858 124.25666664 25.96697998 124.25450134 C22.9409264 124.24891023 19.91494718 124.23635934 16.88891602 124.22363281 C14.83553167 124.21861666 12.78214616 124.21405396 10.72875977 124.20996094 C5.69878326 124.1989437 0.66886224 124.18168514 -4.36108398 124.16113281 C-4.51484572 108.14124713 -4.66288265 92.12132048 -4.80404758 76.10131931 C-4.86972285 68.66346538 -4.93729291 61.22563756 -5.00927734 53.7878418 C-5.07199205 47.30734997 -5.1311988 40.82683737 -5.18613952 34.34627479 C-5.21537163 30.91280614 -5.24639657 27.47937425 -5.28161812 24.04596138 C-5.32080885 20.21923892 -5.35216983 16.39247478 -5.3828125 12.56567383 C-5.39575851 11.41912827 -5.40870453 10.2725827 -5.42204285 9.09129333 C-5.42908234 8.05497772 -5.43612183 7.01866211 -5.44337463 5.95094299 C-5.45167077 5.04482049 -5.45996691 4.13869799 -5.46851444 3.20511723 C-5.26899956 -0.59087622 -3.31627591 0.02760289 0 0 Z " fill="#0C3948" transform="translate(863.361083984375,448.8388671875)"/>
<path d="M0 0 C7.92 0 15.84 0 24 0 C27.9144794 7.7037865 31.58318782 15.44027889 35 23.375 C39.93798047 34.73226765 45.12773321 45.95865148 50.40429688 57.16162109 C50.69521713 57.7803006 50.98613739 58.3989801 51.28587341 59.03640747 C52.07649269 60.71672923 52.86934416 62.3960002 53.66235352 64.07519531 C54.85864481 66.69092258 55.95953121 69.31911344 57 72 C57.12491147 62.33237288 56.82719226 52.77725597 56.1449585 43.13131714 C55.13530945 28.72181845 54.81819499 14.45349825 55 0 C62.59 0 70.18 0 78 0 C79.1271183 25.21339501 79.12191436 50.40107361 79.06866455 75.63476562 C79.05825406 81.1067668 79.0538298 86.57877293 79.04882812 92.05078125 C79.03824847 102.7005334 79.02128576 113.35026422 79 124 C75.39610336 124.11601004 71.79268533 124.18718408 68.1875 124.25 C67.16333984 124.28351563 66.13917969 124.31703125 65.08398438 124.3515625 C64.10107422 124.36445312 63.11816406 124.37734375 62.10546875 124.390625 C61.19949951 124.41157227 60.29353027 124.43251953 59.36010742 124.45410156 C57 124 57 124 55.24943542 122.10794067 C53.97708341 119.9613371 52.88157972 117.83313331 51.86328125 115.5546875 C51.45867676 114.65903076 51.05407227 113.76337402 50.63720703 112.84057617 C50.20005371 111.86193604 49.76290039 110.8832959 49.3125 109.875 C44.18179847 98.52760732 38.90830422 87.25290893 33.58828735 75.99334717 C22.52731628 52.58194883 22.52731628 52.58194883 21 48 C21.03029297 48.77448486 21.06058594 49.54896973 21.09179688 50.34692383 C22.01960504 74.90350794 22.10475959 99.42805662 22 124 C14.74 124 7.48 124 0 124 C0 83.08 0 42.16 0 0 Z " fill="#0B3948" transform="translate(667,449)"/>
<path d="M0 0 C10.23 0 20.46 0 31 0 C34.04184412 12.03481906 36.93957319 24.09669087 39.75 36.1875 C40.07381653 37.57772369 40.07381653 37.57772369 40.4041748 38.99603271 C43.64945463 52.94466112 46.75643297 66.91803524 49.73986816 80.92486572 C52.07330688 91.87872069 54.54514588 102.78129314 57.27441406 113.64501953 C57.50354492 114.56782715 57.73267578 115.49063477 57.96875 116.44140625 C58.16919922 117.23232666 58.36964844 118.02324707 58.57617188 118.83813477 C59 121 59 121 59 125 C50.75 125 42.5 125 34 125 C32.35 116.75 30.7 108.5 29 100 C14.15 99.505 14.15 99.505 -1 99 C-1.33 101.97 -1.66 104.94 -2 108 C-2.28668699 109.54001437 -2.60119525 111.07586441 -2.97265625 112.59765625 C-3.21254272 113.59937866 -3.21254272 113.59937866 -3.45727539 114.62133789 C-3.65699951 115.42692139 -3.85672363 116.23250488 -4.0625 117.0625 C-4.701875 119.681875 -5.34125 122.30125 -6 125 C-14.25 125 -22.5 125 -31 125 C-28.67717445 114.22208946 -26.17544352 103.50853434 -23.5 92.8125 C-23.21568115 91.67458008 -22.9313623 90.53666016 -22.63842773 89.36425781 C-21.18173202 83.57398571 -19.68387254 77.79720298 -18.13183594 72.03173828 C-16.04015699 64.22048795 -14.06325661 56.38194747 -12.109375 48.53515625 C-11.75647226 47.12167298 -11.4034631 45.70821628 -11.050354 44.29478455 C-10.13529968 40.63080611 -9.22166049 36.96647634 -8.30834961 33.30206299 C-7.20470923 28.87531653 -6.09925149 24.44902359 -4.99411011 20.02265167 C-3.32803937 13.3487746 -1.66423028 6.67433746 0 0 Z " fill="#0B3948" transform="translate(787,448)"/>
<path d="M0 0 C8.25 0 16.5 0 25 0 C25.68964844 1.69382812 26.37929688 3.38765625 27.08984375 5.1328125 C33.04678409 19.76058788 39.01411729 34.38403987 45 49 C45.36351562 48.01902344 45.72703125 47.03804688 46.1015625 46.02734375 C49.11896626 37.91604332 52.23822127 29.86028614 55.48046875 21.8359375 C57.44314277 16.93117539 59.27095242 11.97541249 61.08398438 7.01367188 C62.8942389 2.1057611 62.8942389 2.1057611 64 1 C65.78071246 0.91273777 67.5648314 0.89300959 69.34765625 0.90234375 C70.42724609 0.90556641 71.50683594 0.90878906 72.61914062 0.91210938 C74.32360352 0.92467773 74.32360352 0.92467773 76.0625 0.9375 C77.77276367 0.94426758 77.77276367 0.94426758 79.51757812 0.95117188 C82.34510351 0.96300253 85.1725264 0.9794859 88 1 C85.23597336 9.97796801 81.51673745 18.54009471 77.875 27.1875 C76.52205609 30.41348426 75.17128902 33.64037894 73.8203125 36.8671875 C73.48918457 37.65718643 73.15805664 38.44718536 72.81689453 39.26112366 C69.73460516 46.61933126 66.70648696 53.99881238 63.70263672 61.3894043 C63.38311035 62.17484619 63.06358398 62.96028809 62.734375 63.76953125 C62.46850586 64.42542236 62.20263672 65.08131348 61.92871094 65.75708008 C61 68 61 68 59.42358398 71.03808594 C57.27993647 76.05803955 57.52077977 81.24244844 57.48828125 86.62109375 C57.47033005 87.72099136 57.45237885 88.82088898 57.43388367 89.95411682 C57.37993511 93.44853952 57.34593379 96.94282681 57.3125 100.4375 C57.27931337 102.8144719 57.24482248 105.19142597 57.20898438 107.56835938 C57.1217752 113.3789241 57.06157195 119.18888139 57 125 C49.08 125 41.16 125 33 125 C33.05542969 121.82503906 33.11085938 118.65007812 33.16796875 115.37890625 C33.59467689 83.96689718 33.59467689 83.96689718 22.64404297 55.06494141 C19.72288347 49.61910887 17.4756496 43.88329549 15.14596558 38.16540527 C13.79631283 34.86132331 12.41618304 31.57004727 11.0390625 28.27734375 C10.77852585 27.65219879 10.5179892 27.02705383 10.2495575 26.38296509 C8.64836453 22.54143115 7.03040526 18.70745923 5.3984375 14.87890625 C5.01905029 13.9873584 4.63966309 13.09581055 4.2487793 12.17724609 C3.56294915 10.56829836 2.87449099 8.96046717 2.18286133 7.35400391 C0 2.22173461 0 2.22173461 0 0 Z " fill="#0B3847" transform="translate(567,448)"/>
<path d="M0 0 C1.07461739 0.00539291 1.07461739 0.00539291 2.17094421 0.01089478 C2.92211517 0.01074875 3.67328613 0.01060272 4.44721985 0.01045227 C6.94166404 0.01115153 9.43603448 0.01894452 11.9304657 0.02676392 C13.65539509 0.02862805 15.38032501 0.03005197 17.10525513 0.03105164 C21.65418448 0.03487719 26.20308211 0.04470779 30.7519989 0.05575562 C36.20517572 0.06776335 41.65836313 0.0723718 47.11154938 0.07820892 C55.40407483 0.08791953 63.69653061 0.10707581 71.98905945 0.12442017 C71.98905945 16.95442017 71.98905945 33.78442017 71.98905945 51.12442017 C52.93291848 51.2848554 52.93291848 51.2848554 44.8132782 51.31973267 C39.27161857 51.34364914 33.73022318 51.37194936 28.18876648 51.42617798 C23.72134251 51.4696228 19.25420185 51.49355449 14.78658295 51.50392914 C13.0816985 51.51132299 11.37682965 51.52576149 9.67206573 51.54734039 C7.2848758 51.57635711 4.89885815 51.58037703 2.51152039 51.57852173 C1.45308174 51.60009338 1.45308174 51.60009338 0.3732605 51.62210083 C-2.93862022 51.59422936 -4.74024462 51.32085251 -7.44973755 49.35469055 C-9.13626983 46.94537991 -9.51196625 45.88248487 -9.51264954 42.98599243 C-9.52203049 42.18158218 -9.53141144 41.37717194 -9.54107666 40.54838562 C-9.52984268 39.68789108 -9.5186087 38.82739655 -9.5070343 37.94082642 C-9.50921715 36.60204689 -9.50921715 36.60204689 -9.51144409 35.23622131 C-9.50978603 33.35085788 -9.49823506 31.46548078 -9.47749329 29.58023071 C-9.44857684 26.70049246 -9.45687847 23.82260009 -9.46992493 20.94277954 C-9.463686 19.10878625 -9.45529386 17.27479876 -9.4445343 15.44082642 C-9.44746994 14.58235611 -9.45040558 13.7238858 -9.45343018 12.83940125 C-9.33773956 5.47373474 -8.11527625 0.01718218 0 0 Z " fill="#58A0A2" transform="translate(327.0109405517578,493.8755798339844)"/>
<path d="M0 0 C2.97 0 5.94 0 9 0 C9.95024979 3.69541586 9.95024979 6.30458414 9 10 C10.9490625 10.3403125 10.9490625 10.3403125 12.9375 10.6875 C18.20738754 11.83349142 22.44662857 14.17970847 27 17 C26.54827276 22.33038149 25.97264476 25.44938295 23 30 C22.11699219 29.566875 21.23398437 29.13375 20.32421875 28.6875 C13.11858849 25.29086248 6.15126639 22.1389144 -2 24 C-4.98522601 26.32184245 -5.49897758 28.29243408 -6 32 C-1.18083012 33.78487773 3.39954112 35.11469392 8.5 35.8125 C14.32617611 36.81080546 18.66468596 38.96303015 23 43 C26.42749738 48.40090497 26.80610613 53.77758529 26 60 C24.28803267 67.03163982 21.57835883 73.21655731 16 78 C13.32238836 79.5846022 12.18125673 80 9 80 C8.67 82.97 8.34 85.94 8 89 C5.03 89 2.06 89 -1 89 C-1.33 86.03 -1.66 83.06 -2 80 C-3.11375 79.773125 -4.2275 79.54625 -5.375 79.3125 C-12.93329465 77.42292634 -19.69007692 73.4833664 -26 69 C-25.54979057 63.14727744 -22.96160773 58.91779881 -20 54 C-15.38128715 54.87145526 -11.69184332 57.31894668 -7.65625 59.625 C-3.83103614 61.6051107 -0.77849211 62.13965237 3.5 62.125 C4.2528125 62.12757813 5.005625 62.13015625 5.78125 62.1328125 C7.973535 62.00158417 9.89319137 61.60331338 12 61 C11.9175 59.741875 11.835 58.48375 11.75 57.1875 C11.70359375 56.47980469 11.6571875 55.77210938 11.609375 55.04296875 C10.74229223 52.13601818 9.64755663 51.45701574 7 50 C4.60185648 49.45295805 2.18039855 49.0038273 -0.25 48.625 C-8.00460997 47.24708774 -13.1261341 45.16862138 -18.4375 39.3125 C-20.89187427 34.10922655 -22.05925118 29.15748079 -20.18359375 23.56640625 C-16.86273381 17.06716552 -11.81407717 11.81195123 -5 9 C-3.68 9 -2.36 9 -1 9 C-0.67 6.03 -0.34 3.06 0 0 Z " fill="#0A3746" transform="translate(282,324)"/>
<path d="M0 0 C1.25329102 -0.02421524 2.50658203 -0.04843048 3.79785156 -0.07337952 C6.43672476 -0.11469407 9.07575359 -0.14695279 11.71484375 -0.1706543 C14.40700414 -0.19731823 17.09455673 -0.26012134 19.78515625 -0.35522461 C43.42008906 -1.13063754 43.42008906 -1.13063754 48.41040039 3.27246094 C50.70454707 6.34515991 52.19088751 9.22742048 53.75 12.71484375 C55.17177278 14.47123179 56.64431851 16.18910825 58.1875 17.83984375 C58.82558594 18.54367187 59.46367187 19.2475 60.12109375 19.97265625 C61.30779706 21.24188809 62.52133931 22.48618306 63.75 23.71484375 C52.90149965 23.83077012 42.05314701 23.91957578 31.20415306 23.97390461 C26.16631544 23.99998186 21.12890206 24.03534587 16.09130859 24.09204102 C11.22834742 24.14642735 6.3657939 24.17627838 1.50255203 24.18922997 C-0.35141796 24.19845795 -2.20536602 24.21647841 -4.05916214 24.24349403 C-6.65923254 24.27987314 -9.25762558 24.28478552 -11.85791016 24.2824707 C-13.00374573 24.30943527 -13.00374573 24.30943527 -14.17272949 24.33694458 C-18.09413423 24.29924992 -20.6711642 23.77363257 -23.71200562 21.36686707 C-26.7147213 18.2292431 -27.15050041 16.61034003 -27.625 12.33984375 C-27.25 8.71484375 -27.25 8.71484375 -25.3125 5.96484375 C-17.68036875 0.35756365 -9.19801638 0.17071723 0 0 Z " fill="#6EB0B1" transform="translate(176.25,401.28515625)"/>
<path d="M0 0 C9.57 0 19.14 0 29 0 C29 16.5 29 33 29 50 C12.17 50 -4.66 50 -22 50 C-21.67 49.34 -21.34 48.68 -21 48 C-20.05125 48.020625 -19.1025 48.04125 -18.125 48.0625 C-15.09333717 48.22551826 -15.09333717 48.22551826 -13 47 C-12.34 47 -11.68 47 -11 47 C-11.33 45.68 -11.66 44.36 -12 43 C-9.5625 43.8125 -9.5625 43.8125 -7 45 C-6.67 45.99 -6.34 46.98 -6 48 C-6 46.68 -6 45.36 -6 44 C-5.7018576 42.65835921 -5.37756808 41.32148827 -5 40 C-5.66 40 -6.32 40 -7 40 C-7 40.66 -7 41.32 -7 42 C-7.99 42 -8.98 42 -10 42 C-10.33 40.68 -10.66 39.36 -11 38 C-9.0625 37.4375 -9.0625 37.4375 -7 37 C-6.67 37.33 -6.34 37.66 -6 38 C-5.34 37.34 -4.68 36.68 -4 36 C-2 35 -2 35 1 34 C1 32.35 1 30.7 1 29 C1.99 28.67 2.98 28.34 4 28 C4 27.34 4 26.68 4 26 C3.34 26 2.68 26 2 26 C2.57344937 23.13275314 2.8614515 22.1385485 5 20 C5.33 19.01 5.66 18.02 6 17 C7.30915279 15.96854629 8.64082143 14.96457834 10 14 C10 13.67 10 13.34 10 13 C9.34 12.67 8.68 12.34 8 12 C8 10.68 8 9.36 8 8 C7.01 7.67 6.02 7.34 5 7 C5.66 7 6.32 7 7 7 C7 6.01 7 5.02 7 4 C7.66 4 8.32 4 9 4 C9 3.34 9 2.68 9 2 C6.03 1.67 3.06 1.34 0 1 C0 0.67 0 0.34 0 0 Z " fill="#5FA5A7" transform="translate(370,495)"/>
<path d="M0 0 C1.76949095 -0.10815225 3.54087487 -0.18566083 5.3125 -0.25 C6.29863281 -0.29640625 7.28476562 -0.3428125 8.30078125 -0.390625 C11 0 11 0 12.85546875 1.828125 C14 4 14 4 14 7 C12.79296875 8.75390625 12.79296875 8.75390625 11.1875 10.5625 C10.66542969 11.16191406 10.14335937 11.76132812 9.60546875 12.37890625 C8 14 8 14 5 16 C5 16.99 5 17.98 5 19 C5 19.33 5 19.66 5 20 C6.32 20.33 7.64 20.66 9 21 C7.95014723 24.89945314 6.80047407 28.39905186 5 32 C5 32.99 5 33.98 5 35 C5.33 35.33 5.66 35.66 6 36 C6.66 34.68 7.32 33.36 8 32 C8 32.66 8 33.32 8 34 C8.99 34 9.98 34 11 34 C10.01 33.01 9.02 32.02 8 31 C8.99 30.34 9.98 29.68 11 29 C11.99 30.98 12.98 32.96 14 35 C14.33 34.67 14.66 34.34 15 34 C15.66 34 16.32 34 17 34 C16.48962437 31.70330966 15.94281115 29.89465213 14.8125 27.8125 C13.58419295 23.5606679 14.29567553 20.04965593 16 16 C18.59337942 13.40662058 20.29795922 12.15654778 23.99609375 11.81640625 C27.82731285 12.04092003 29.78314734 12.84312787 32.9375 15.125 C35.45969095 18.64078133 36.07588945 20.67430133 36 25 C34.39117417 28.15806552 33.03879946 30.27284038 30.125 32.3125 C27.44493172 33.17958092 24.7874745 33.61988984 22 34 C21.67 35.65 21.34 37.3 21 39 C24.7763932 39.2981424 24.7763932 39.2981424 27 38 C27 39.65 27 41.3 27 43 C26.01 43 25.02 43 24 43 C22.66018514 43.3062434 21.32488113 43.63451555 20 44 C20 44.99 20 45.98 20 47 C17.36 47 14.72 47 12 47 C12 45.35 12 43.7 12 42 C10.7018576 43.1490712 10.7018576 43.1490712 10 46 C7.01897078 47.73893371 5.63027493 48.15756873 2.25 47.3125 C0 46 0 46 -1 43 C-1.17824226 40.09984613 -1.3058364 37.21947141 -1.38671875 34.31640625 C-1.41224319 33.46449203 -1.43776764 32.61257782 -1.46406555 31.73484802 C-1.51604714 29.93357225 -1.56547727 28.13222131 -1.61254883 26.33081055 C-1.68712868 23.57621448 -1.77780555 20.82244418 -1.86914062 18.06835938 C-1.91765863 16.31773554 -1.96521659 14.56708479 -2.01171875 12.81640625 C-2.04077805 11.99338516 -2.06983734 11.17036407 -2.09977722 10.32240295 C-2.2548116 3.26955946 -2.2548116 3.26955946 0 0 Z " fill="#4B9497" transform="translate(320,496)"/>
<path d="M0 0 C1.0236264 0.00424484 1.0236264 0.00424484 2.06793213 0.00857544 C4.23817807 0.01973152 6.40800471 0.04482693 8.578125 0.0703125 C10.05337944 0.08034824 11.52864037 0.08947306 13.00390625 0.09765625 C16.61211442 0.11965563 20.22007875 0.15415367 23.828125 0.1953125 C23.828125 0.8553125 23.828125 1.5153125 23.828125 2.1953125 C24.488125 2.5253125 25.148125 2.8553125 25.828125 3.1953125 C25.828125 2.5353125 25.828125 1.8753125 25.828125 1.1953125 C26.488125 1.1953125 27.148125 1.1953125 27.828125 1.1953125 C27.951875 2.3296875 28.075625 3.4640625 28.203125 4.6328125 C28.409375 5.8084375 28.615625 6.9840625 28.828125 8.1953125 C29.488125 8.5253125 30.148125 8.8553125 30.828125 9.1953125 C30.828125 10.1853125 30.828125 11.1753125 30.828125 12.1953125 C31.818125 12.5253125 32.808125 12.8553125 33.828125 13.1953125 C30.078125 16.1953125 30.078125 16.1953125 27.828125 16.1953125 C27.333125 17.6803125 27.333125 17.6803125 26.828125 19.1953125 C23.30066618 21.54695171 20.61682895 21.62315107 16.52734375 21.78515625 C15.81334915 21.81638077 15.09935455 21.84760529 14.36372375 21.879776 C12.85344665 21.94117038 11.3429409 21.9971455 9.83227539 22.0480957 C7.53275608 22.13218604 5.2371746 22.25394454 2.93945312 22.37695312 C1.46883571 22.43202601 -0.00186863 22.48483344 -1.47265625 22.53515625 C-2.15411209 22.57656235 -2.83556793 22.61796844 -3.53767395 22.66062927 C-7.3337679 22.74198988 -9.66757747 22.17929176 -12.59057617 19.86157227 C-15.63703597 16.71484121 -16.0687162 15.1237417 -16.546875 10.8203125 C-16.171875 7.1953125 -16.171875 7.1953125 -13.921875 4.3828125 C-9.10332965 0.5498787 -6.22084222 -0.05099051 0 0 Z " fill="#549D9F" transform="translate(165.171875,402.8046875)"/>
<path d="M0 0 C1.56807159 0.00264877 3.13635786 0.03756057 4.703125 0.1015625 C5.86328125 0.09189453 5.86328125 0.09189453 7.046875 0.08203125 C14.20393702 0.21412468 19.40178971 2.56347389 24.828125 7.1640625 C29.60576701 12.92533668 28.953125 15.63935746 28.953125 23.7265625 C12.123125 23.7265625 -4.706875 23.7265625 -22.046875 23.7265625 C-20.066875 21.4165625 -18.086875 19.1065625 -16.046875 16.7265625 C-14.66136576 15.04768031 -13.28504831 13.36113049 -11.921875 11.6640625 C-10.95894531 10.47103516 -10.95894531 10.47103516 -9.9765625 9.25390625 C-7.91832681 6.70917238 -7.91832681 6.70917238 -6.3515625 3.45703125 C-3.85666043 0.50120659 -3.59536517 0.30816262 0 0 Z " fill="#79B9B9" transform="translate(352.046875,401.2734375)"/>
<path d="M0 0 C2.84625 -0.0825 5.6925 -0.165 8.625 -0.25 C9.51010254 -0.28641602 10.39520508 -0.32283203 11.30712891 -0.36035156 C16.6946415 -0.4355318 19.75911288 0.3724104 24 4 C27.67763451 9.51645176 27.98163799 16.52674572 27 23 C24.29362575 28.11304933 21.36893909 29.85242436 16 32 C10.72 32 5.44 32 0 32 C0 21.44 0 10.88 0 0 Z " fill="#F8F7F5" transform="translate(882,519)"/>
<path d="M0 0 C2.89740622 -0.13539281 5.78845621 -0.23426829 8.6875 -0.3125 C9.50412109 -0.35439453 10.32074219 -0.39628906 11.16210938 -0.43945312 C15.4026894 -0.52529483 17.44125584 -0.37656057 21.04296875 2.05078125 C23.50754349 5.76486095 23.66934701 8.0652992 23.625 12.5 C23.63789062 13.7890625 23.65078125 15.078125 23.6640625 16.40625 C22.85048083 20.80916259 21.45727192 22.24538423 18 25 C13.52075709 26.91967553 9.55451426 27.0788185 4.75390625 27.04296875 C3.67568604 27.03676514 2.59746582 27.03056152 1.48657227 27.02416992 C0.66600342 27.01619385 -0.15456543 27.00821777 -1 27 C-1.02898816 23.06251542 -1.04679464 19.12505821 -1.0625 15.1875 C-1.07087891 14.06794922 -1.07925781 12.94839844 -1.08789062 11.79492188 C-1.09111328 10.72177734 -1.09433594 9.64863281 -1.09765625 8.54296875 C-1.10289307 7.55321045 -1.10812988 6.56345215 -1.11352539 5.54370117 C-1 3 -1 3 0 0 Z " fill="#F8F7F5" transform="translate(883,470)"/>
<path d="M0 0 C25.41 0 50.82 0 77 0 C77 0.33 77 0.66 77 1 C70.73 1.33 64.46 1.66 58 2 C57.67 2.99 57.34 3.98 57 5 C56.34 5 55.68 5 55 5 C55 5.99 55 6.98 55 8 C54.34 8 53.68 8 53 8 C53.66 9.65 54.32 11.3 55 13 C54.34 13 53.68 13 53 13 C52.67 13.66 52.34 14.32 52 15 C51.34 15.66 50.68 16.32 50 17 C49.01 16.67 48.02 16.34 47 16 C47.33 14.35 47.66 12.7 48 11 C47.34 10.5875 46.68 10.175 46 9.75 C45.34 9.1725 44.68 8.595 44 8 C44 6.68 44 5.36 44 4 C44.66 4 45.32 4 46 4 C46.33 3.34 46.66 2.68 47 2 C37.1 2.495 37.1 2.495 27 3 C27 3.99 27 4.98 27 6 C26.67 6.66 26.34 7.32 26 8 C25.01 7.67 24.02 7.34 23 7 C20.66924071 7.95865509 20.66924071 7.95865509 19 11 C18.34 9.68 17.68 8.36 17 7 C17.33 8.65 17.66 10.3 18 12 C17.34 12 16.68 12 16 12 C16.33 12.99 16.66 13.98 17 15 C16.01 15.33 15.02 15.66 14 16 C13.01568313 22.34337537 12.2704641 27.40569614 16 33 C15.625 36.1875 15.625 36.1875 15 39 C13.02 39.495 13.02 39.495 11 40 C10.814375 38.576875 10.814375 38.576875 10.625 37.125 C10.28312823 33.91332809 10.28312823 33.91332809 8 32 C7.8509288 34.0745356 7.8509288 34.0745356 9 36 C8.0409375 36.1546875 8.0409375 36.1546875 7.0625 36.3125 C6.0415625 36.6528125 6.0415625 36.6528125 5 37 C4.67 37.99 4.34 38.98 4 40 C3.34 39.67 2.68 39.34 2 39 C2 35.12918214 2.48013623 33.34985311 3.9375 29.875 C4.29714844 29.00617187 4.65679687 28.13734375 5.02734375 27.2421875 C5.64796025 25.81152938 6.3025837 24.39483261 7 23 C5.35 23.33 3.7 23.66 2 24 C2 23.34 2 22.68 2 22 C1.34 21.67 0.68 21.34 0 21 C0.99 20.67 1.98 20.34 3 20 C3 19.01 3 18.02 3 17 C5 15 5 15 7 14 C7.66 13.01 8.32 12.02 9 11 C9.99387334 9.66209359 10.9926892 8.32781878 12 7 C11.34 7 10.68 7 10 7 C9.67 5.35 9.34 3.7 9 2 C5.7 2.33 2.4 2.66 -1 3 C-0.67 2.01 -0.34 1.02 0 0 Z M48 5 C47.67 5.99 47.34 6.98 47 8 C47.66 8.66 48.32 9.32 49 10 C49.33 9.01 49.66 8.02 50 7 C49.34 6.34 48.68 5.68 48 5 Z " fill="#539A9D" transform="translate(322,494)"/>
<path d="M0 0 C9.57 0 19.14 0 29 0 C29 16.5 29 33 29 50 C19.1 50 9.2 50 -1 50 C-1 49.34 -1 48.68 -1 48 C6.92 48 14.84 48 23 48 C23 47.34 23 46.68 23 46 C20.03 46.495 20.03 46.495 17 47 C17.495 46.566875 17.99 46.13375 18.5 45.6875 C20.33218192 44.00259517 20.33218192 44.00259517 20 41 C21.485 40.505 21.485 40.505 23 40 C23.33 39.34 23.66 38.68 24 38 C24.99 38 25.98 38 27 38 C27.09765625 44.15234375 27.09765625 44.15234375 27 46 C26.67 46.33 26.34 46.66 26 47 C26.66 47.33 27.32 47.66 28 48 C28 43.71 28 39.42 28 35 C27.34 35 26.68 35 26 35 C26 35.66 26 36.32 26 37 C24.35 36.67 22.7 36.34 21 36 C22.32 34.68 23.64 33.36 25 32 C23.515 32.495 23.515 32.495 22 33 C22 29.7 22 26.4 22 23 C21.34 23 20.68 23 20 23 C20.226875 21.7625 20.45375 20.525 20.6875 19.25 C21.09666898 16.13146889 21.18326458 15.31872101 19.5625 12.5 C19.046875 12.005 18.53125 11.51 18 11 C17.6596875 11.9590625 17.6596875 11.9590625 17.3125 12.9375 C16 15 16 15 13.375 15.75 C12.59125 15.8325 11.8075 15.915 11 16 C11 15.01 11 14.02 11 13 C10.01 12.67 9.02 12.34 8 12 C8 10.68 8 9.36 8 8 C7.01 7.67 6.02 7.34 5 7 C5.66 7 6.32 7 7 7 C7 6.01 7 5.02 7 4 C7.66 4 8.32 4 9 4 C9 3.34 9 2.68 9 2 C6.03 1.67 3.06 1.34 0 1 C0 0.67 0 0.34 0 0 Z " fill="#66AAAB" transform="translate(370,495)"/>
<path d="M0 0 C0.33 0 0.66 0 1 0 C2.28687743 6.04954082 3.5684829 12.10016534 4.84521484 18.15185547 C5.28028955 20.21043042 5.71680353 22.26870172 6.15478516 24.32666016 C6.78406311 27.2846946 7.40815773 30.24378223 8.03125 33.203125 C8.22811401 34.12305237 8.42497803 35.04297974 8.62780762 35.99078369 C8.80799438 36.8513739 8.98818115 37.71196411 9.17382812 38.59863281 C9.33371216 39.35364075 9.49359619 40.10864868 9.6583252 40.88653564 C10 43 10 43 10 47 C3.4 47 -3.2 47 -10 47 C-8.89777777 41.75290951 -7.79523435 36.50588853 -6.69189453 31.2590332 C-6.31736053 29.47749657 -5.94300818 27.69592175 -5.56884766 25.91430664 C-5.02815811 23.33990349 -4.48679546 20.76564262 -3.9453125 18.19140625 C-3.78064484 17.40665421 -3.61597717 16.62190216 -3.44631958 15.81336975 C-2.3348713 10.53372812 -1.18083437 5.26454915 0 0 Z " fill="#F7F6F5" transform="translate(801,479)"/>
<path d="M0 0 C3.56100793 2.57604829 4.76474581 4.23888351 6.0625 8.4375 C5.98454913 12.88069934 4.87270176 14.66145471 2 18 C-1.4094043 20.58644464 -4.8386449 20.36503115 -9 20 C-12.09277666 18.69416097 -13.56098946 17.64897211 -15.4375 14.875 C-16.27661782 10.5861756 -15.69285048 7.02239251 -14 3 C-9.67600084 -1.32399916 -5.62600411 -1.97951997 0 0 Z " fill="#0A3847" transform="translate(350,509)"/>
<path d="M0 0 C1.17336914 0.00128906 2.34673828 0.00257813 3.55566406 0.00390625 C4.80186523 0.01679688 6.04806641 0.0296875 7.33203125 0.04296875 C8.59241211 0.04941406 9.85279297 0.05585938 11.15136719 0.0625 C20.17918103 0.13670756 29.14971208 0.44831056 38.14453125 1.23046875 C38.14453125 3.54046875 38.14453125 5.85046875 38.14453125 8.23046875 C37.48453125 8.56046875 36.82453125 8.89046875 36.14453125 9.23046875 C35.67801918 11.35623657 35.67801918 11.35623657 35.51953125 13.79296875 C35.44476563 14.61925781 35.37 15.44554687 35.29296875 16.296875 C35.24398437 16.93496094 35.195 17.57304687 35.14453125 18.23046875 C36.13453125 18.56046875 37.12453125 18.89046875 38.14453125 19.23046875 C37.64953125 20.71546875 37.64953125 20.71546875 37.14453125 22.23046875 C27.73901363 23.36076195 18.41065603 23.34712961 8.95703125 23.29296875 C7.41731917 23.28794072 5.8776055 23.28338013 4.33789062 23.27929688 C0.60673697 23.26840139 -3.12435529 23.25120957 -6.85546875 23.23046875 C-6.85546875 22.90046875 -6.85546875 22.57046875 -6.85546875 22.23046875 C-6.04803223 22.21064941 -5.2405957 22.19083008 -4.40869141 22.17041016 C-0.76561 22.07540976 2.87687811 21.96562963 6.51953125 21.85546875 C7.79054687 21.82453125 9.0615625 21.79359375 10.37109375 21.76171875 C12.18867188 21.70371094 12.18867188 21.70371094 14.04296875 21.64453125 C15.16364746 21.61311035 16.28432617 21.58168945 17.43896484 21.54931641 C20.29163537 21.49635672 20.29163537 21.49635672 22.14453125 19.23046875 C23.33997668 18.33794162 24.54946536 17.46403364 25.76953125 16.60546875 C26.40117187 16.15945313 27.0328125 15.7134375 27.68359375 15.25390625 C28.16570312 14.91617187 28.6478125 14.5784375 29.14453125 14.23046875 C28.15453125 14.23046875 27.16453125 14.23046875 26.14453125 14.23046875 C26.47453125 12.91046875 26.80453125 11.59046875 27.14453125 10.23046875 C26.15453125 9.90046875 25.16453125 9.57046875 24.14453125 9.23046875 C24.14453125 6.92046875 24.14453125 4.61046875 24.14453125 2.23046875 C23.48453125 2.23046875 22.82453125 2.23046875 22.14453125 2.23046875 C22.14453125 2.89046875 22.14453125 3.55046875 22.14453125 4.23046875 C20.82453125 3.90046875 19.50453125 3.57046875 18.14453125 3.23046875 C18.80453125 3.23046875 19.46453125 3.23046875 20.14453125 3.23046875 C20.14453125 2.57046875 20.14453125 1.91046875 20.14453125 1.23046875 C19.39945313 1.39417969 18.654375 1.55789063 17.88671875 1.7265625 C12.67190551 2.42876595 7.52432394 2.33503298 2.26953125 2.29296875 C0.66464844 2.28620117 0.66464844 2.28620117 -0.97265625 2.27929688 C-3.60031861 2.26756624 -6.22786413 2.25115103 -8.85546875 2.23046875 C-5.39269269 -0.07804862 -4.079615 -0.01588126 0 0 Z " fill="#69AFAF" transform="translate(168.85546875,401.76953125)"/>
<path d="M0 0 C2.31 0 4.62 0 7 0 C7 0.66 7 1.32 7 2 C7.66 2.33 8.32 2.66 9 3 C9 2.34 9 1.68 9 1 C9.66 1 10.32 1 11 1 C11.12375 2.134375 11.2475 3.26875 11.375 4.4375 C11.58125 5.613125 11.7875 6.78875 12 8 C12.66 8.33 13.32 8.66 14 9 C14 9.99 14 10.98 14 12 C14.99 12.33 15.98 12.66 17 13 C13.25 16 13.25 16 11 16 C10.67 16.99 10.34 17.98 10 19 C6.47320901 21.35119399 4.97120515 21.21443452 0.8125 21.125 C-0.27417969 21.10695313 -1.36085937 21.08890625 -2.48046875 21.0703125 C-3.72763672 21.03550781 -3.72763672 21.03550781 -5 21 C-5 20.01 -5 19.02 -5 18 C-4.01 18 -3.02 18 -2 18 C-2 16.02 -2 14.04 -2 12 C-2.99 12.33 -3.98 12.66 -5 13 C-5 12.01 -5 11.02 -5 10 C-6.31321858 8.3174387 -7.64613064 6.65002828 -9 5 C-9 4.34 -9 3.68 -9 3 C-8.01 3 -7.02 3 -6 3 C-5.67 3.99 -5.34 4.98 -5 6 C-2.99983534 7.20882096 -2.99983534 7.20882096 -1 8 C-1.99 7.01 -2.98 6.02 -4 5 C-3.67 4.01 -3.34 3.02 -3 2 C-2.01 2 -1.02 2 0 2 C0 1.34 0 0.68 0 0 Z " fill="#5EA4A6" transform="translate(182,403)"/>
<path d="M0 0 C7.92 0 15.84 0 24 0 C23.67 0.66 23.34 1.32 23 2 C15.74 1.67 8.48 1.34 1 1 C1.03029297 3.67061523 1.06058594 6.34123047 1.09179688 9.09277344 C1.1930219 18.03728043 1.2924895 26.9818064 1.39115143 35.92634201 C1.45086835 41.33550711 1.51112983 46.74466486 1.57275391 52.15380859 C1.8376266 75.43656595 2.09241941 98.71544416 2 122 C8.27 122 14.54 122 21 122 C20.9278125 120.70578125 20.855625 119.4115625 20.78125 118.078125 C19.69602433 96.39489059 19.90544134 74.70339542 20 53 C20.33 53 20.66 53 21 53 C22.15087936 76.66954807 22.09889558 100.30901345 22 124 C14.74 124 7.48 124 0 124 C0 83.08 0 42.16 0 0 Z " fill="#0D1F2E" transform="translate(667,449)"/>
<path d="M0 0 C9.57 0 19.14 0 29 0 C28.67 0.66 28.34 1.32 28 2 C19.09 1.67 10.18 1.34 1 1 C1 40.93 1 80.86 1 122 C7.27 122 13.54 122 20 122 C20 96.92 20 71.84 20 46 C20.33 46 20.66 46 21 46 C21 71.74 21 97.48 21 124 C13.74 124 6.48 124 -1 124 C-0.67 83.08 -0.34 42.16 0 0 Z " fill="#071928" transform="translate(457,449)"/>
<path d="M0 0 C4.10627682 -0.29947601 8.20824798 -0.51555839 12.32299805 -0.65917969 C13.71767916 -0.71908286 15.11162046 -0.80066059 16.50366211 -0.90527344 C21.18237939 -1.24774144 25.42499149 -1.2546466 30 0 C33.90965931 3.52143024 36.31753338 7.51839547 39 12 C40.44103 13.74062326 41.91446482 15.45565862 43.4375 17.125 C44.39462891 18.18074219 44.39462891 18.18074219 45.37109375 19.2578125 C46.55779706 20.52704434 47.77133931 21.77133931 49 23 C34.15 23 19.3 23 4 23 C4 22.67 4 22.34 4 22 C11.59 22 19.18 22 27 22 C26.34 20.35 25.68 18.7 25 17 C26.32 16.01 27.64 15.02 29 14 C29.66 14.66 30.32 15.32 31 16 C31.66 14.02 32.32 12.04 33 10 C32.34 9.67 31.68 9.34 31 9 C31.66 8.67 32.32 8.34 33 8 C31.46123334 4.91487479 31.46123334 4.91487479 29 2 C25.83356174 1.08656251 25.83356174 1.08656251 22.265625 1.1953125 C20.32236328 1.15664063 20.32236328 1.15664063 18.33984375 1.1171875 C16.97656143 1.1191533 15.6132799 1.12176565 14.25 1.125 C12.87105557 1.10686877 11.49214353 1.0860647 10.11328125 1.0625 C6.74158023 1.01534334 3.3719639 0.99556487 0 1 C0 0.67 0 0.34 0 0 Z " fill="#7CBEBD" transform="translate(191,402)"/>
<path d="M0 0 C9.57 0 19.14 0 29 0 C29 16.5 29 33 29 50 C19.1 50 9.2 50 -1 50 C-1 49.34 -1 48.68 -1 48 C6.92 48 14.84 48 23 48 C23 47.34 23 46.68 23 46 C20.03 46.495 20.03 46.495 17 47 C17.495 46.566875 17.99 46.13375 18.5 45.6875 C20.33218192 44.00259517 20.33218192 44.00259517 20 41 C21.485 40.505 21.485 40.505 23 40 C23.33 39.34 23.66 38.68 24 38 C24.99 38 25.98 38 27 38 C27.09765625 44.15234375 27.09765625 44.15234375 27 46 C26.67 46.33 26.34 46.66 26 47 C26.66 47.33 27.32 47.66 28 48 C28 32.49 28 16.98 28 1 C18.76 1 9.52 1 0 1 C0 0.67 0 0.34 0 0 Z " fill="#78BDBC" transform="translate(370,495)"/>
<path d="M0 0 C10.8424337 -0.21684867 10.8424337 -0.21684867 15 1 C16.375 3.0625 16.375 3.0625 17 5 C16.01 5.495 16.01 5.495 15 6 C14.67 5.67 14.34 5.34 14 5 C13.67 5.99 13.34 6.98 13 8 C12.01 8.33 11.02 8.66 10 9 C10.66 10.32 11.32 11.64 12 13 C11.01 13.33 10.02 13.66 9 14 C8.67 14.66 8.34 15.32 8 16 C4.89347355 15.6641593 3.39585697 15.40950721 1.1875 13.125 C0 11 0 11 0 8 C-0.66 7.01 -1.32 6.02 -2 5 C-1.125 2.3125 -1.125 2.3125 0 0 Z " fill="#4D9699" transform="translate(151,407)"/>
<path d="M0 0 C0.33 0 0.66 0 1 0 C1.90494775 26.00762058 2.11548297 51.97783662 2 78 C-5.26 78 -12.52 78 -20 78 C-20 73.05 -20 68.1 -20 63 C-19.67 63 -19.34 63 -19 63 C-19 67.29 -19 71.58 -19 76 C-12.73 76 -6.46 76 0 76 C0 50.92 0 25.84 0 0 Z " fill="#132E3E" transform="translate(556,495)"/>
<path d="M0 0 C2.64 0.99 5.28 1.98 8 3 C4 4 4 4 2 4 C2.00092179 4.61769382 2.00184359 5.23538765 2.00279331 5.87179947 C2.02494112 20.94744002 2.04145653 36.02307552 2.05181217 51.09872818 C2.05695403 58.38939246 2.06395623 65.68004584 2.07543945 72.97070312 C2.08545106 79.33010801 2.09186875 85.68950499 2.09408849 92.04891753 C2.09538467 95.41173871 2.09893679 98.7745195 2.10573006 102.13733673 C2.11303433 105.90439673 2.113987 109.67141057 2.11352539 113.43847656 C2.11712067 114.53612335 2.12071594 115.63377014 2.12442017 116.76467896 C2.11503052 123.88904653 1.69735582 130.91020917 1 138 C0.67 138 0.34 138 0 138 C0 92.46 0 46.92 0 0 Z " fill="#95D0CE" transform="translate(148,440)"/>
<path d="M0 0 C4.95 0 9.9 0 15 0 C15 0.33 15 0.66 15 1 C9.06 1.495 9.06 1.495 3 2 C3 11.24 3 20.48 3 30 C5.97 30 8.94 30 12 30 C12 30.33 12 30.66 12 31 C8.04 31.33 4.08 31.66 0 32 C0 21.44 0 10.88 0 0 Z " fill="#EFF1F0" transform="translate(882,519)"/>
<path d="M0 0 C10.23 0 20.46 0 31 0 C31.33 1.65 31.66 3.3 32 5 C31.01 5 30.02 5 29 5 C29 4.34 29 3.68 29 3 C20.09 3 11.18 3 2 3 C1.67 3.99 1.34 4.98 1 6 C0.67 5.67 0.34 5.34 0 5 C0 3.35 0 1.7 0 0 Z " fill="#253E4C" transform="translate(787,448)"/>
<path d="M0 0 C0.33 0 0.66 0 1 0 C1.0093457 1.00901367 1.01869141 2.01802734 1.02832031 3.05761719 C1.0682477 6.80773776 1.13401281 10.55704029 1.20751953 14.30664062 C1.23571347 15.92827837 1.25693594 17.55005313 1.27099609 19.171875 C1.29244872 21.50592105 1.33910575 23.83832261 1.390625 26.171875 C1.39185364 26.89493835 1.39308228 27.61800171 1.39434814 28.36297607 C1.49356562 31.78653639 1.78886517 33.71178241 3.83496094 36.50488281 C6.00980481 38.34234134 6.00980481 38.34234134 9.25 37.75 C10.1575 37.5025 11.065 37.255 12 37 C11.67 35.68 11.34 34.36 11 33 C12.98 32.505 12.98 32.505 15 32 C14.67 34.64 14.34 37.28 14 40 C12.41820385 40.10867302 10.83422847 40.18589827 9.25 40.25 C8.36828125 40.29640625 7.4865625 40.3428125 6.578125 40.390625 C3.05084879 39.85618921 2.13155484 38.85101046 0 36 C-0.3491005 33.1103488 -0.4681562 30.6140729 -0.390625 27.734375 C-0.38496521 26.94097717 -0.37930542 26.14757935 -0.37347412 25.33013916 C-0.35113147 22.80280527 -0.30094176 20.27690335 -0.25 17.75 C-0.22993214 16.03387468 -0.21168187 14.31772708 -0.1953125 12.6015625 C-0.15127395 8.4004922 -0.08226326 4.20048865 0 0 Z " fill="#5CAAAA" transform="translate(318,505)"/>
<path d="M0 0 C2.40250153 2.40250153 3.16953569 4.53931447 4.4375 7.6875 C4.87320313 8.75871094 5.30890625 9.82992188 5.7578125 10.93359375 C6.37269531 12.45146484 6.37269531 12.45146484 7 14 C7.98835315 16.33858364 8.99349925 18.66915615 10 21 C6.125 19.25 6.125 19.25 5 17 C4.67 19.31 4.34 21.62 4 24 C1.92329908 22.31011183 1.07665372 21.40213987 0.56762695 18.73168945 C0.54144287 17.86761475 0.51525879 17.00354004 0.48828125 16.11328125 C0.45283203 15.17548828 0.41738281 14.23769531 0.38085938 13.27148438 C0.35830078 12.29501953 0.33574219 11.31855469 0.3125 10.3125 C0.27833984 9.32443359 0.24417969 8.33636719 0.20898438 7.31835938 C0.12649462 4.87901947 0.05734932 2.44003937 0 0 Z " fill="#EBEFEF" transform="translate(687,495)"/>
<path d="M0 0 C4.12481817 -0.2740934 8.24605522 -0.47243071 12.37792969 -0.60424805 C13.77925972 -0.65922429 15.17996836 -0.73405021 16.57910156 -0.82983398 C21.20681943 -1.13845854 25.46558737 -1.17504534 30 0 C33.62276039 3.19303935 35.95979544 6.63645876 38 11 C38 11.66 38 12.32 38 13 C36.02 13.99 36.02 13.99 34 15 C33.87625 14.195625 33.7525 13.39125 33.625 12.5625 C33.41875 11.716875 33.2125 10.87125 33 10 C32.34 9.67 31.68 9.34 31 9 C31.66 8.67 32.32 8.34 33 8 C31.46123334 4.91487479 31.46123334 4.91487479 29 2 C25.83356174 1.08656251 25.83356174 1.08656251 22.265625 1.1953125 C20.32236328 1.15664063 20.32236328 1.15664063 18.33984375 1.1171875 C16.97656143 1.1191533 15.6132799 1.12176565 14.25 1.125 C12.87105557 1.10686877 11.49214353 1.0860647 10.11328125 1.0625 C6.74158023 1.01534334 3.3719639 0.99556487 0 1 C0 0.67 0 0.34 0 0 Z " fill="#81C4C3" transform="translate(191,402)"/>
<path d="M0 0 C4.25414623 -0.02465622 8.50825498 -0.04283899 12.76245117 -0.05493164 C14.21070073 -0.05997101 15.65894517 -0.06680253 17.10717773 -0.07543945 C19.18474588 -0.08752247 21.26224697 -0.09323211 23.33984375 -0.09765625 C24.59144287 -0.10289307 25.84304199 -0.10812988 27.13256836 -0.11352539 C30 0 30 0 31 1 C31.04063832 2.66617115 31.042721 4.33388095 31 6 C30.34 6 29.68 6 29 6 C29 5.01 29 4.02 29 3 C28.26362305 3.01571045 27.52724609 3.0314209 26.76855469 3.04760742 C23.42911471 3.11000472 20.08979745 3.14900618 16.75 3.1875 C15.59113281 3.21263672 14.43226563 3.23777344 13.23828125 3.26367188 C12.12324219 3.27333984 11.00820313 3.28300781 9.859375 3.29296875 C8.31975098 3.31653442 8.31975098 3.31653442 6.74902344 3.34057617 C3.63780439 2.95512763 2.2937883 2.08024524 0 0 Z " fill="#D0DADA" transform="translate(786,547)"/>
<path d="M0 0 C8.25 0 16.5 0 25 0 C28 7 28 7 27 10 C26.01 7.69 25.02 5.38 24 3 C16.41 3 8.82 3 1 3 C0.67 2.01 0.34 1.02 0 0 Z " fill="#122F3F" transform="translate(567,448)"/>
<path d="M0 0 C0.33 1.32 0.66 2.64 1 4 C7.93 4.33 14.86 4.66 22 5 C22.33 4.34 22.66 3.68 23 3 C23 4.32 23 5.64 23 7 C14.75 7 6.5 7 -2 7 C-1.34 4.69 -0.68 2.38 0 0 Z " fill="#0F2F3E" transform="translate(758,566)"/>
<path d="M0 0 C0.33 0 0.66 0 1 0 C1.33 7.26 1.66 14.52 2 22 C6.62 21.67 11.24 21.34 16 21 C15.67 21.66 15.34 22.32 15 23 C12 24 12 24 0 24 C0 16.08 0 8.16 0 0 Z " fill="#D5DDDF" transform="translate(882,473)"/>
<path d="M0 0 C0.33 0 0.66 0 1 0 C0.44854729 5.23880078 -0.42922093 9.97350697 -2 15 C-4.04219706 13.30820672 -4.91793306 12.36272334 -5.51171875 9.73828125 C-5.56972656 8.93777344 -5.62773437 8.13726563 -5.6875 7.3125 C-5.75324219 6.50425781 -5.81898438 5.69601562 -5.88671875 4.86328125 C-5.92410156 4.24839844 -5.96148437 3.63351562 -6 3 C-5.195625 2.87625 -4.39125 2.7525 -3.5625 2.625 C-2.716875 2.41875 -1.87125 2.2125 -1 2 C-0.67 1.34 -0.34 0.68 0 0 Z " fill="#E4E9E9" transform="translate(510,505)"/>
<path d="M0 0 C7.92 0 15.84 0 24 0 C24.33 0.99 24.66 1.98 25 3 C16.42 3 7.84 3 -1 3 C-0.67 2.01 -0.34 1.02 0 0 Z " fill="#C0CBCD" transform="translate(666,446)"/>
<path d="M0 0 C0.66 0 1.32 0 2 0 C2 1.32 2 2.64 2 4 C3.26457031 4.16435547 3.26457031 4.16435547 4.5546875 4.33203125 C6.19824219 4.56986328 6.19824219 4.56986328 7.875 4.8125 C8.96554687 4.96332031 10.05609375 5.11414063 11.1796875 5.26953125 C14 6 14 6 16 9 C10.39 8.34 4.78 7.68 -1 7 C-0.67 4.69 -0.34 2.38 0 0 Z " fill="#E4E9EA" transform="translate(356,378)"/>
<path d="M0 0 C0.33 0 0.66 0 1 0 C1.054348 2.0622048 1.09294961 4.12482816 1.125 6.1875 C1.14820313 7.33605469 1.17140625 8.48460937 1.1953125 9.66796875 C1.00484152 12.91740372 0.39360127 15.08660521 -1 18 C-1.99 17.67 -2.98 17.34 -4 17 C-2.68 11.39 -1.36 5.78 0 0 Z " fill="#EFF2F2" transform="translate(533,493)"/>
<path d="M0 0 C10.23 0 20.46 0 31 0 C31 0.99 31 1.98 31 3 C30.01 3 29.02 3 28 3 C28 2.34 28 1.68 28 1 C19.09 1 10.18 1 1 1 C0.67 1.99 0.34 2.98 0 4 C0 2.68 0 1.36 0 0 Z " fill="#144451" transform="translate(788,450)"/>
<path d="M0 0 C2.05078125 0.03255208 4.1015625 0.06510417 6.15234375 0.09765625 C3.4113657 2.8386343 1.64236582 3.08339484 -2.203125 3.1953125 C-3.46769531 3.18371094 -4.73226562 3.17210937 -6.03515625 3.16015625 C-7.30746094 3.15113281 -8.57976563 3.14210938 -9.890625 3.1328125 C-11.35435547 3.11541016 -11.35435547 3.11541016 -12.84765625 3.09765625 C-12.84765625 2.76765625 -12.84765625 2.43765625 -12.84765625 2.09765625 C-12.13738281 2.03707031 -11.42710937 1.97648438 -10.6953125 1.9140625 C-9.31666016 1.78837891 -9.31666016 1.78837891 -7.91015625 1.66015625 C-6.99363281 1.57894531 -6.07710937 1.49773438 -5.1328125 1.4140625 C-2.71666136 1.0795185 -2.31628356 0.12242514 0 0 Z " fill="#ECEFEF" transform="translate(896.84765625,547.90234375)"/>
<path d="M0 0 C1.32 0.99 2.64 1.98 4 3 C3.773125 3.598125 3.54625 4.19625 3.3125 4.8125 C2.73526713 7.03472131 2.73526713 7.03472131 4.1875 8.625 C6.04697706 10.03563777 7.87334378 11.04667135 10 12 C6.87193116 12.3475632 5.40400921 12.26933948 2.75 10.5 C0.29431266 6.99187523 0.28321163 4.24817445 0 0 Z " fill="#57A5A5" transform="translate(149,412)"/>
<path d="M0 0 C0.33 0 0.66 0 1 0 C1 5.94 1 11.88 1 18 C-0.94723595 15.07914607 -1.55175352 13.40667322 -2 10 C-1.67 9.67 -1.34 9.34 -1 9 C-0.76807135 7.48530552 -0.58784762 5.96245438 -0.4375 4.4375 C-0.35371094 3.61121094 -0.26992188 2.78492188 -0.18359375 1.93359375 C-0.12300781 1.29550781 -0.06242188 0.65742188 0 0 Z " fill="#D8DFE0" transform="translate(724,506)"/>
<path d="M0 0 C0.99 0.33 1.98 0.66 3 1 C2.21572648 2.64936913 1.42234741 4.29441127 0.625 5.9375 C0.18414063 6.85402344 -0.25671875 7.77054687 -0.7109375 8.71484375 C-2 11 -2 11 -4 12 C-3.33501617 7.61110675 -1.81242323 4.0188515 0 0 Z " fill="#F1F2F2" transform="translate(636,494)"/>
<path d="M0 0 C-0.25561323 2.3431213 -0.59270772 4.67843403 -1 7 C-1.99 7.495 -1.99 7.495 -3 8 C-3.66 5.69 -4.32 3.38 -5 1 C-2 0 -2 0 0 0 Z " fill="#E9EEED" transform="translate(614,490)"/>
<path d="M0 0 C0.99 0.33 1.98 0.66 3 1 C3 3.31 3 5.62 3 8 C2.01 8.33 1.02 8.66 0 9 C0 6.03 0 3.06 0 0 Z " fill="#D3D9DA" transform="translate(934,532)"/>
<path d="M0 0 C0.33 0 0.66 0 1 0 C1.27615058 1.59987236 1.52007625 3.205333 1.75 4.8125 C1.88921875 5.70582031 2.0284375 6.59914063 2.171875 7.51953125 C2 10 2 10 0.015625 11.82421875 C-0.98210938 12.40623047 -0.98210938 12.40623047 -2 13 C-1.855625 12.154375 -1.71125 11.30875 -1.5625 10.4375 C-0.9941203 6.96406851 -0.48797607 3.48554338 0 0 Z " fill="#E8EFEE" transform="translate(801,479)"/>
<path d="M0 0 C0.99 0 1.98 0 3 0 C3 0.66 3 1.32 3 2 C4.32 1.67 5.64 1.34 7 1 C6.67 1.99 6.34 2.98 6 4 C3.03 3.67 0.06 3.34 -3 3 C-2.01 2.01 -1.02 1.02 0 0 Z " fill="#57A1A2" transform="translate(156,404)"/>
<path d="M0 0 C0.33 0 0.66 0 1 0 C1 2.97 1 5.94 1 9 C0.01 8.67 -0.98 8.34 -2 8 C-2.75 6.0625 -2.75 6.0625 -3 4 C-2.67 3.34 -2.34 2.68 -2 2 C-1.34 2 -0.68 2 0 2 C0 1.34 0 0.68 0 0 Z " fill="#EEF1EF" transform="translate(722,506)"/>
<path d="M0 0 C0.99 0 1.98 0 3 0 C2.34 3.3 1.68 6.6 1 10 C0.34 9.67 -0.32 9.34 -1 9 C-0.67 6.03 -0.34 3.06 0 0 Z " fill="#F5F7F7" transform="translate(507,510)"/>
<path d="M0 0 C0.33 0.66 0.66 1.32 1 2 C1.99 1.67 2.98 1.34 4 1 C4.33 1.99 4.66 2.98 5 4 C2.525 5.485 2.525 5.485 0 7 C0 6.01 0 5.02 0 4 C-0.66 3.34 -1.32 2.68 -2 2 C-1.34 1.34 -0.68 0.68 0 0 Z " fill="#549D9F" transform="translate(155,413)"/>
<path d="M0 0 C1.10740461 3.32221382 0.97233311 5.64103108 0 9 C-0.66 9.66 -1.32 10.32 -2 11 C-1.85892253 9.54119891 -1.71197585 8.08296449 -1.5625 6.625 C-1.48128906 5.81289063 -1.40007813 5.00078125 -1.31640625 4.1640625 C-1 2 -1 2 0 0 Z " fill="#042130" transform="translate(782,471)"/>
<path d="M0 0 C-0.66 1.65 -1.32 3.3 -2 5 C-2.33 4.01 -2.66 3.02 -3 2 C-3.99 2 -4.98 2 -6 2 C-6 1.34 -6 0.68 -6 0 C-3.50907189 -1.24546405 -2.58919267 -0.7767578 0 0 Z " fill="#62A7A8" transform="translate(200,409)"/>
<path d="M0 0 C-0.33 3.3 -0.66 6.6 -1 10 C-1.33 10 -1.66 10 -2 10 C-2.66 7.03 -3.32 4.06 -4 1 C-2 0 -2 0 0 0 Z " fill="#64AFAF" transform="translate(358,511)"/>
<path d="M0 0 C0.66 0 1.32 0 2 0 C1.67 0.66 1.34 1.32 1 2 C0.67 1.34 0.34 0.68 0 0 Z M-3 2 C-1.35 2.33 0.3 2.66 2 3 C1.67 3.66 1.34 4.32 1 5 C-1.5625 5.625 -1.5625 5.625 -4 6 C-3.67 4.68 -3.34 3.36 -3 2 Z " fill="#499194" transform="translate(324,496)"/>
<path d="M0 0 C1.67542976 0.28604898 3.34385343 0.61781233 5 1 C4.360625 1.226875 3.72125 1.45375 3.0625 1.6875 C0.72806339 2.85250896 0.72806339 2.85250896 0.25 5.625 C0.1675 6.40875 0.085 7.1925 0 8 C-0.33 8 -0.66 8 -1 8 C-1.04241723 5.66705225 -1.04092937 3.33297433 -1 1 C-0.67 0.67 -0.34 0.34 0 0 Z " fill="#55A1A2" transform="translate(320,496)"/>
<path d="M0 0 C0.33 0.99 0.66 1.98 1 3 C2.49985609 4.66710346 2.49985609 4.66710346 4 6 C1 6 1 6 -2 4 C-2 3.01 -2 2.02 -2 1 C-1.34 0.67 -0.68 0.34 0 0 Z " fill="#539A9D" transform="translate(178,405)"/>
</svg>
