<?xml version="1.0" standalone="no"?>
<!DOCTYPE svg PUBLIC "-//W3C//DTD SVG 20010904//EN"
 "http://www.w3.org/TR/2001/REC-SVG-20010904/DTD/svg10.dtd">
<svg version="1.0" xmlns="http://www.w3.org/2000/svg"
 width="1024.000000pt" height="1024.000000pt" viewBox="0 0 1024.000000 1024.000000"
 preserveAspectRatio="xMidYMid meet">

<g transform="translate(0.000000,1024.000000) scale(0.100000,-0.100000)"
fill="#000000" stroke="none">
<path d="M0 5120 l0 -5120 5120 0 5120 0 0 5120 0 5120 -5120 0 -5120 0 0
-5120z m3036 2725 c4 -9 -4 -39 -16 -68 -34 -79 -40 -106 -41 -179 0 -47 5
-77 20 -105 30 -60 37 -63 116 -46 104 22 309 10 447 -27 l38 -11 -53 -42
c-119 -98 -252 -304 -294 -457 -26 -95 -23 -265 6 -344 58 -160 168 -258 341
-302 76 -19 212 -15 277 8 l42 15 35 -56 c63 -103 172 -185 294 -222 24 -7 41
-17 38 -24 -42 -111 -59 -189 -63 -295 -8 -203 44 -348 171 -475 63 -63 90
-81 208 -139 165 -80 259 -141 358 -231 94 -85 144 -119 227 -157 133 -60 288
-74 427 -38 111 28 170 63 261 155 66 65 89 97 127 175 94 192 123 330 115
555 -5 165 -30 273 -88 389 -16 33 -29 61 -29 63 0 1 93 3 208 3 114 1 268 5
342 9 145 9 140 8 384 111 144 61 269 91 406 97 174 8 270 -20 376 -109 291
-246 391 -785 242 -1305 l-21 -72 -29 15 c-17 9 -50 16 -74 17 -24 1 -44 3
-44 3 0 1 9 30 19 65 92 301 92 604 0 867 -17 48 -45 112 -62 142 -42 74 -131
166 -192 199 -47 24 -59 26 -175 26 -96 -1 -144 -6 -207 -23 -71 -19 -268 -94
-280 -106 -3 -2 20 -31 51 -63 85 -90 135 -160 183 -260 80 -167 113 -348 113
-618 0 -314 -71 -1138 -141 -1630 -25 -179 -87 -520 -105 -577 -5 -16 -21 -18
-143 -18 l-138 0 -7 243 c-3 133 -13 323 -21 422 -8 99 -15 189 -15 201 0 19
-3 20 -52 10 -29 -5 -54 -11 -56 -11 -1 -1 -14 -62 -28 -136 -32 -167 -71
-334 -131 -557 l-46 -172 -137 0 -138 0 6 308 c3 169 2 334 -2 366 -7 54 -9
57 -22 38 -20 -29 -66 -37 -102 -18 -39 20 -44 34 -50 153 l-5 103 -46 27
c-25 15 -68 48 -96 74 l-50 46 -65 -8 c-244 -30 -888 -64 -1074 -57 -90 3 -96
2 -96 -17 0 -52 -22 -325 -35 -450 -19 -171 -37 -282 -72 -443 l-26 -122 -141
0 -142 0 -12 248 c-7 136 -19 310 -27 387 -16 148 -54 438 -59 442 -2 2 -29 8
-62 14 -32 5 -67 12 -76 15 -17 5 -18 -8 -18 -176 0 -279 -25 -626 -61 -857
l-12 -73 -106 0 c-58 0 -123 -3 -143 -6 l-38 -7 0 170 c0 558 -97 986 -320
1407 -102 192 -163 412 -214 767 -38 266 -57 456 -63 655 l-6 181 -201 6
c-384 10 -659 84 -789 211 -113 111 -169 300 -136 458 25 118 103 230 196 280
27 15 100 41 162 58 215 58 433 153 604 263 60 38 76 53 71 66 -35 81 -46 130
-41 192 10 125 102 288 204 363 52 38 109 48 119 21z m1010 -89 c33 -58 49
-149 48 -271 0 -93 -5 -122 -28 -190 -26 -74 -70 -157 -114 -214 -17 -21 -22
-22 -43 -11 -42 22 -69 52 -94 108 -34 75 -89 146 -143 187 -35 27 -40 35 -24
35 11 0 49 9 84 20 116 36 172 107 198 250 24 131 71 167 116 86z"/>
<path d="M2806 7044 c-21 -20 -20 -40 3 -90 56 -123 225 -140 316 -33 32 39
47 73 39 93 -9 24 -33 27 -50 7 -75 -90 -91 -101 -139 -101 -40 0 -52 5 -81
34 -20 20 -34 44 -34 58 0 23 -16 48 -31 48 -4 0 -15 -7 -23 -16z"/>
<path d="M1884 6685 c-20 -31 -23 -100 -6 -117 11 -11 17 -9 33 10 23 30 44
95 36 116 -10 24 -45 19 -63 -9z"/>
<path d="M2176 6629 c-42 -50 -29 -164 17 -146 40 15 70 113 48 156 -16 29
-35 26 -65 -10z"/>
<path d="M6656 5379 c-229 -35 -370 -238 -370 -534 0 -84 3 -109 23 -152 67
-149 212 -179 406 -84 142 70 237 176 291 327 60 163 4 364 -117 422 -53 25
-152 34 -233 21z"/>
</g>
</svg>
